PathFileType	4	(X/Y/Z)	/Users/itak/Documents/Research/Walk-IL/dataset/trc/00521_00183.trc
DataRate	CameraRate	NumFrames	NumMarkers	Units	OrigDataRate	OrigDataStartFrame	OrigNumFrames
100.000000	100.000000	4	53	mm	100.000000	248	497
Frame#	Time	RPSI			LPSI			L3			STRN			T10			C7			CLAV			RBAK			LBAK			LSHO			LUPA			LAEL			LAOL			LWTS			LWPS			LFRA			LIFD			LHPS			LHTS			RSHO			RUPA			RAEL			RAOL			RWTS			RWPS			RFRA			RIFD			RHTS			RHPS			RBHD			LFHD			RFHD			LBHD			LHIP			RHIP			RASI			LASI			LKNE			LTHI			LANK			LTIP			LTOE			LMT1			LMT5			LHEE			RKNE			RTHI			RANK			RTIP			RTOE			RMT1			RMT5			RHEE			
		X1	Y1	Z1	X2	Y2	Z2	X3	Y3	Z3	X4	Y4	Z4	X5	Y5	Z5	X6	Y6	Z6	X7	Y7	Z7	X8	Y8	Z8	X9	Y9	Z9	X10	Y10	Z10	X11	Y11	Z11	X12	Y12	Z12	X13	Y13	Z13	X14	Y14	Z14	X15	Y15	Z15	X16	Y16	Z16	X17	Y17	Z17	X18	Y18	Z18	X19	Y19	Z19	X20	Y20	Z20	X21	Y21	Z21	X22	Y22	Z22	X23	Y23	Z23	X24	Y24	Z24	X25	Y25	Z25	X26	Y26	Z26	X27	Y27	Z27	X28	Y28	Z28	X29	Y29	Z29	X30	Y30	Z30	X31	Y31	Z31	X32	Y32	Z32	X33	Y33	Z33	X34	Y34	Z34	X35	Y35	Z35	X36	Y36	Z36	X37	Y37	Z37	X38	Y38	Z38	X39	Y39	Z39	X40	Y40	Z40	X41	Y41	Z41	X42	Y42	Z42	X43	Y43	Z43	X44	Y44	Z44	X45	Y45	Z45	X46	Y46	Z46	X47	Y47	Z47	X48	Y48	Z48	X49	Y49	Z49	X50	Y50	Z50	X51	Y51	Z51	X52	Y52	Z52	X53	Y53	Z53	

249	2.48	-201.3260192871094	934.641357421875	-186.9609985351562	-115.4893035888672	952.315673828125	-274.7755126953125	-162.24169921875	1020.161010742188	-229.0601348876953	7.832698345184326	1190.560546875	-90.06378173828125	-177.3744659423828	1124.028564453125	-228.2087097167969	-151.1701049804688	1353.846069335938	-195.4696960449219	-23.98307228088379	1284.971801757812	-109.7240676879883	-237.2582092285156	1228.539672851562	-155.8701324462891	-119.9637603759766	1301.547973632812	-281.5740966796875	-4.08128023147583	1354.87939453125	-287.8959350585938	21.75155448913574	1233.560302734375	-351.43994140625	50.10440826416016	1027.599853515625	-386.8735656738281	-45.42070770263672	1012.924560546875	-358.5728759765625	122.1303939819336	838.8291625976562	-327.4214172363281	70.27567291259766	804.958251953125	-398.0955200195312	70.40804290771484	942.414306640625	-387.5230712890625	132.2274017333984	682.2711791992188	-329.5303344726562	94.79212188720703	752.479248046875	-388.9301452636719	143.2831878662109	764.2199096679688	-347.2394104003906	-194.1248168945312	1346.0205078125	-44.88069152832031	-238.8172912597656	1276.749755859375	-8.522294998168945	-251.8144073486328	1008.638244628906	26.01848030090332	-264.7286376953125	990.931640625	-37.0118293762207	-150.9126586914062	810.3003540039062	71.41965484619141	-236.0500640869141	782.3228149414062	52.80902862548828	-252.7109527587891	954.72216796875	33.74834442138672	-148.0580749511719	651.1661987304688	77.48188781738281	-154.4417419433594	718.5863037109375	99.56758117675781	-217.1537933349609	713.27294921875	68.50938415527344	-174.2859954833984	1504.768310546875	-104.1087036132812	13.86318874359131	1569.196533203125	-85.23729705810547	-86.10993957519531	1550.18505859375	-8.860323905944824	-57.12969589233398	1525.28515625	-211.5833282470703	60.31148147583008	900.2284545898438	-296.67626953125	-200.3579559326172	825.8508911132812	-28.44869232177734	-88.89009857177734	888.099853515625	-5.006397724151611	72.64550018310547	931.1371459960938	-181.0442047119141	103.1457443237305	483.2001342773438	-213.3110809326172	105.7391510009766	639.9927978515625	-243.5446166992188	56.73086547851562	46.59030532836914	-281.2427062988281	100.6275787353516	329.9396362304688	-233.8432464599609	147.5424652099609	38.98203659057617	-94.43243408203125	70.14656829833984	43.39846420288086	-129.1867218017578	136.5245208740234	42.16777801513672	-206.2462158203125	-19.51895332336426	42.15498733520508	-271.4443359375	-78.57244110107422	458.8718872070312	-17.86598777770996	-153.1878204345703	702.1815795898438	-8.694575309753418	-330.0659790039062	220.921875	-250.8669281005859	-123.9798431396484	350.3358459472656	-69.90151977539062	-227.7571868896484	60.94425201416016	-194.245849609375	-225.18017578125	107.407829284668	-252.1204223632812	-303.4839172363281	128.9335174560547	-194.9493255615234	-319.6238708496094	254.9859924316406	-310.9227905273438	
250	2.49	-194.23388671875	936.4226684570312	-183.6964721679688	-107.2457580566406	953.7015380859375	-270.5109558105469	-154.0927886962891	1022.063842773438	-225.8059234619141	14.42073440551758	1191.840942382812	-83.27217864990234	-168.7569580078125	1126.031860351562	-224.9017486572266	-142.4298400878906	1355.67724609375	-190.9842224121094	-16.91497039794922	1286.392944335938	-103.1736373901367	-229.4886322021484	1230.516479492188	-153.3759002685547	-109.7663803100586	1303.697631835938	-276.7088623046875	6.250186920166016	1356.908081054688	-280.6646728515625	33.51181030273438	1235.819458007812	-344.0330810546875	62.49921417236328	1029.850463867188	-379.1027526855469	-34.03353118896484	1015.486999511719	-353.302490234375	132.5356597900391	840.38720703125	-318.8416137695312	82.04045867919922	806.9750366210938	-390.8392028808594	82.60540771484375	944.58154296875	-379.6350708007812	142.0279235839844	683.7991333007812	-321.47802734375	106.222526550293	754.3968505859375	-381.4060974121094	153.8196716308594	765.7938842773438	-338.5345764160156	-188.0630645751953	1347.623901367188	-41.31116104125977	-233.7886352539062	1278.537719726562	-5.963477611541748	-248.7537689208984	1010.356323242188	27.38601493835449	-260.8353881835938	993.1053466796875	-36.00191879272461	-149.4012603759766	810.9385986328125	72.56167602539062	-234.5990753173828	783.6770629882812	53.16951751708984	-249.9446411132812	956.4417724609375	34.69450759887695	-147.6168975830078	651.6409912109375	77.09336090087891	-153.7052307128906	718.9099731445312	99.77353668212891	-216.2955017089844	714.3519897460938	68.321533203125	-166.9700775146484	1506.347412109375	-99.30816650390625	21.21827507019043	1570.4384765625	-78.05043029785156	-79.85427093505859	1551.697631835938	-3.088160276412964	-48.2937126159668	1526.59716796875	-205.3319091796875	68.42230224609375	900.8115234375	-290.6825561523438	-195.0195159912109	828.33837890625	-24.51674652099609	-83.76213073730469	890.4420166015625	-0.6912802457809448	80.01418304443359	932.0609130859375	-174.9883270263672	105.8838348388672	482.7310180664062	-211.2658233642578	110.8739013671875	639.9845581054688	-239.1808166503906	56.71567916870117	46.78603363037109	-280.9996643066406	102.0227584838867	329.5364990234375	-232.6663970947266	147.576416015625	38.58150863647461	-94.19992828369141	70.11945343017578	43.16600799560547	-128.9794921875	136.5771484375	42.1408576965332	-206.0717620849609	-19.50215721130371	42.30081176757812	-271.3333740234375	-66.25211334228516	463.4102478027344	-7.000940799713135	-146.7096099853516	705.2324829101562	-2.663070678710938	-308.37451171875	218.3665161132812	-242.4426116943359	-109.0794219970703	354.1969299316406	-58.53904342651367	-205.6597137451172	61.92770385742188	-177.8698120117188	-201.8881225585938	106.4962844848633	-237.0881652832031	-282.0469360351562	128.7525177001953	-182.8601531982422	-296.744384765625	250.7198028564453	-303.2742004394531	
251	2.5	-187.2338409423828	937.9599609375	-180.3117065429688	-99.15786743164062	954.826416015625	-266.1231994628906	-145.9921569824219	1023.786071777344	-222.4998931884766	20.92069244384766	1192.982421875	-76.50405120849609	-160.2135772705078	1127.848510742188	-221.5539245605469	-133.7949371337891	1357.33642578125	-186.4507446289062	-9.980515480041504	1287.65869140625	-96.61867523193359	-221.7679901123047	1232.315673828125	-150.8521423339844	-99.66963958740234	1305.684448242188	-271.7699890136719	16.40843772888184	1358.833374023438	-273.3569641113281	45.14942932128906	1237.985229492188	-336.522705078125	74.83561706542969	1032.001831054688	-371.1300659179688	-22.71940422058105	1018.002380371094	-347.894775390625	142.9171295166016	841.8814086914062	-309.9894714355469	93.88483428955078	808.8932495117188	-383.3112182617188	94.79407501220703	946.6756591796875	-371.4984130859375	151.8019409179688	685.2681274414062	-313.1497497558594	117.6840515136719	756.2182006835938	-373.5640869140625	164.3674163818359	767.2926635742188	-329.5337219238281	-182.0770874023438	1349.053833007812	-37.74888610839844	-228.7848968505859	1280.151733398438	-3.507323026657104	-245.8634185791016	1011.939514160156	28.6286678314209	-257.1109924316406	995.1311645507812	-35.10384368896484	-148.0085601806641	811.594482421875	73.73326873779297	-233.2235870361328	784.9588623046875	53.56337738037109	-247.3207244873047	958.015625	35.49076461791992	-147.1468811035156	652.1712646484375	77.01709747314453	-153.0173797607422	719.3151245117188	100.1705474853516	-215.4505767822266	715.4044799804688	68.28908538818359	-159.7011566162109	1507.787841796875	-94.39817047119141	28.50135612487793	1571.444458007812	-70.76869964599609	-73.63406372070312	1552.97900390625	2.793568134307861	-39.64386749267578	1527.76953125	-198.9681091308594	76.39077758789062	901.2305908203125	-284.7075805664062	-189.6094512939453	830.7518920898438	-20.32855987548828	-78.57089233398438	892.6054077148438	3.602913856506348	87.34273529052734	932.82568359375	-168.9867401123047	108.5286865234375	482.2087097167969	-209.3055572509766	115.9134674072266	639.8378295898438	-234.9044799804688	56.67996978759766	47.00641250610352	-280.7391052246094	103.3818206787109	329.1331176757812	-231.5184020996094	147.6107330322266	38.20960235595703	-93.95098876953125	70.06841278076172	42.91203308105469	-128.7458038330078	136.5997161865234	42.12095642089844	-205.8819885253906	-19.49458885192871	42.47251892089844	-271.2069091796875	-54.60750198364258	467.928955078125	3.920017242431641	-140.2146606445312	708.3297729492188	3.612593412399292	-286.4828491210938	214.4212493896484	-233.3906097412109	-94.62711334228516	357.6766662597656	-47.09215545654297	-183.1210784912109	62.30771255493164	-160.6845550537109	-178.1480712890625	104.8538665771484	-221.2089538574219	-260.2668762207031	127.4506225585938	-170.1442108154297	-273.67041015625	245.0463562011719	-294.9593200683594	
252	2.51	-180.3307647705078	939.1937255859375	-176.8259124755859	-91.21562957763672	955.67919921875	-261.6192932128906	-137.9175262451172	1025.302490234375	-219.1022033691406	27.34041023254395	1193.945190429688	-69.76265716552734	-151.7194213867188	1129.450317382812	-218.1410827636719	-125.2581253051758	1358.79296875	-181.8644561767578	-3.168585538864136	1288.731689453125	-90.06790924072266	-214.0883026123047	1233.917724609375	-148.2920074462891	-89.67509460449219	1307.463134765625	-266.7570495605469	26.39892578125	1360.60302734375	-265.9850158691406	56.65117645263672	1240.000610351562	-328.9237976074219	87.10009765625	1033.997680664062	-362.9870300292969	-11.4533748626709	1020.367553710938	-342.3433227539062	153.279541015625	843.2783813476562	-300.8920288085938	105.8122940063477	810.6629028320312	-375.5093688964844	106.9578399658203	948.6417846679688	-363.1370544433594	161.5899200439453	686.64990234375	-304.5285034179688	129.1957397460938	757.905517578125	-365.3996276855469	174.9369659423828	768.6829223632812	-320.2368469238281	-176.1471099853516	1350.274169921875	-34.17836761474609	-223.7667694091797	1281.553955078125	-1.147186636924744	-243.1084747314453	1013.354248046875	29.7486629486084	-253.5237579345703	996.971923828125	-34.30864715576172	-146.7404327392578	812.2263793945312	74.95641326904297	-231.92578125	786.1297607421875	53.96966552734375	-244.8186187744141	959.4095458984375	36.14937973022461	-146.6601257324219	652.71142578125	77.27701568603516	-152.4009704589844	719.7581176757812	100.7834091186523	-214.6208190917969	716.38134765625	68.40017700195312	-152.4708099365234	1509.047119140625	-89.40396118164062	35.67983245849609	1572.209228515625	-63.40141677856445	-67.46531677246094	1553.989868164062	8.786088943481445	-31.15814018249512	1528.792114257812	-192.4996490478516	84.23750305175781	901.4928588867188	-278.7315979003906	-184.1220245361328	833.0244750976562	-15.92172336578369	-73.33741760253906	894.5361938476562	7.896250247955322	94.63250732421875	933.4097900390625	-163.0105285644531	111.135124206543	481.6447448730469	-207.4303131103516	120.840576171875	639.5555419921875	-230.7550964355469	56.6317253112793	47.24416351318359	-280.4671936035156	104.7383499145508	328.7310791015625	-230.4110260009766	147.6496124267578	37.86867141723633	-93.69766235351562	70.00481414794922	42.64417266845703	-128.4967346191406	136.5934906005859	42.09775543212891	-205.6784057617188	-19.5036678314209	42.66532516479492	-271.0674743652344	-43.62869262695312	472.3525695800781	14.84895992279053	-133.7311553955078	711.4192504882812	10.06991004943848	-264.43701171875	209.2208557128906	-223.6325378417969	-80.61575317382812	360.6903076171875	-35.55962371826172	-160.3124237060547	62.15806579589844	-142.6522369384766	-154.1278839111328	102.5715408325195	-204.438720703125	-238.2586059570312	125.1623153686523	-156.7205352783203	-250.4166564941406	238.0913391113281	-285.90283203125	
